<?xml version="1.0" encoding="UTF-8"?>
<svg width="171px" height="180px" viewBox="0 0 171 180" version="1.1" xmlns="http://www.w3.org/2000/svg" xmlns:xlink="http://www.w3.org/1999/xlink">
    <!-- Generator: Sketch 59.1 (86144) - https://sketch.com -->
    <title>404 explorers</title>
    <desc>Created with Sketch.</desc>
    <defs>
        <linearGradient x1="0.00686881188%" y1="50.1509091%" x2="99.9994431%" y2="50.1509091%" id="linearGradient-1">
            <stop stop-color="#FAFBFC" offset="0%"></stop>
            <stop stop-color="#F7F8FA" offset="3.212589%"></stop>
            <stop stop-color="#E9EBEE" offset="24.86%"></stop>
            <stop stop-color="#E1E3E7" offset="51.78%"></stop>
            <stop stop-color="#DFE1E5" offset="100%"></stop>
        </linearGradient>
        <linearGradient x1="-0.00550742574%" y1="50.1677273%" x2="99.987005%" y2="50.1677273%" id="linearGradient-2">
            <stop stop-color="#FAFBFC" offset="0%"></stop>
            <stop stop-color="#F7F8FA" offset="3.212589%"></stop>
            <stop stop-color="#E9EBEE" offset="24.86%"></stop>
            <stop stop-color="#E1E3E7" offset="51.78%"></stop>
            <stop stop-color="#DFE1E5" offset="100%"></stop>
        </linearGradient>
        <linearGradient x1="91.4182854%" y1="60.5693883%" x2="11.4769214%" y2="39.5338337%" id="linearGradient-3">
            <stop stop-color="#FFC400" offset="0%"></stop>
            <stop stop-color="#FFDB5F" offset="53.11%"></stop>
            <stop stop-color="#FFF0B2" offset="100%"></stop>
        </linearGradient>
        <linearGradient x1="89.3787704%" y1="58.6290579%" x2="14.2108061%" y2="41.4251871%" id="linearGradient-4">
            <stop stop-color="#FFC400" offset="0%"></stop>
            <stop stop-color="#FFDB5F" offset="53.11%"></stop>
            <stop stop-color="#FFF0B2" offset="100%"></stop>
        </linearGradient>
        <linearGradient x1="85.6470002%" y1="56.5505097%" x2="14.4168498%" y2="43.4605721%" id="linearGradient-5">
            <stop stop-color="#FFC400" offset="0%"></stop>
            <stop stop-color="#FFF0B2" offset="100%"></stop>
        </linearGradient>
        <linearGradient x1="32.4202219%" y1="77.3888561%" x2="68.4732631%" y2="19.3855462%" id="linearGradient-6">
            <stop stop-color="#C1C7D0" offset="0%"></stop>
            <stop stop-color="#F4F5F7" offset="100%"></stop>
        </linearGradient>
        <linearGradient x1="28.9834928%" y1="78.5337979%" x2="72.1398155%" y2="17.5830421%" id="linearGradient-7">
            <stop stop-color="#C1C7D0" offset="0%"></stop>
            <stop stop-color="#F4F5F7" offset="100%"></stop>
        </linearGradient>
        <linearGradient x1="-1.48956954%" y1="50.3602667%" x2="101.814404%" y2="50.3602667%" id="linearGradient-8">
            <stop stop-color="#DE350B" offset="9.79367%"></stop>
            <stop stop-color="#E9613F" offset="18.83%"></stop>
            <stop stop-color="#FFBDAD" offset="38.41%"></stop>
            <stop stop-color="#FFBDAD" offset="65.44%"></stop>
            <stop stop-color="#FFBDAD" offset="70.01%"></stop>
            <stop stop-color="#FFBDAD" offset="74.61%"></stop>
            <stop stop-color="#FF7452" offset="94.06%"></stop>
        </linearGradient>
        <linearGradient x1="0.225777629%" y1="50.0886672%" x2="100.320748%" y2="50.0886672%" id="linearGradient-9">
            <stop stop-color="#253858" offset="0%"></stop>
            <stop stop-color="#42526E" offset="48.91%"></stop>
        </linearGradient>
        <linearGradient x1="10.9397297%" y1="64.221928%" x2="72.0497482%" y2="34.7625938%" id="linearGradient-10">
            <stop stop-color="#253858" offset="0%"></stop>
            <stop stop-color="#505F79" offset="48.91%"></stop>
        </linearGradient>
        <path d="M20.3874343,28.354232 L0.298061904,20.1925661 L6.49774952,4.47380206 C7.74960952,1.26959248 11.3263524,-0.241827138 14.4858086,1.02776534 L28.9120047,6.89207344 L20.3874343,28.354232 Z" id="path-11"></path>
        <path d="M20.3874343,28.354232 L0.298061904,20.1925661 L6.49774952,4.47380206 C7.74960952,1.26959248 11.3263524,-0.241827138 14.4858086,1.02776534 L28.9120047,6.89207344 L20.3874343,28.354232 Z" id="path-13"></path>
        <linearGradient x1="49.6593407%" y1="100.353865%" x2="49.6593407%" y2="0.00448877806%" id="linearGradient-15">
            <stop stop-color="#00875A" offset="0%"></stop>
            <stop stop-color="#57D9A3" offset="100%"></stop>
        </linearGradient>
        <linearGradient x1="50.5897575%" y1="100.278057%" x2="49.4405325%" y2="-0.298296905%" id="linearGradient-16">
            <stop stop-color="#00875A" offset="0%"></stop>
            <stop stop-color="#57D9A3" offset="100%"></stop>
        </linearGradient>
        <linearGradient x1="42.5738565%" y1="51.0031706%" x2="57.7225391%" y2="48.8610503%" id="linearGradient-17">
            <stop stop-color="#57D9A3" offset="0%"></stop>
            <stop stop-color="#00875A" offset="100%"></stop>
        </linearGradient>
        <linearGradient x1="49.8986353%" y1="99.9767328%" x2="50.0532341%" y2="-0.0962604598%" id="linearGradient-18">
            <stop stop-color="#00875A" offset="0%"></stop>
            <stop stop-color="#57D9A3" offset="100%"></stop>
        </linearGradient>
        <linearGradient x1="31.0874796%" y1="52.0019248%" x2="68.8734283%" y2="48.5508456%" id="linearGradient-19">
            <stop stop-color="#00875A" offset="0%"></stop>
            <stop stop-color="#57D9A3" offset="100%"></stop>
        </linearGradient>
        <linearGradient x1="55.1288717%" y1="40.9495888%" x2="45.7810226%" y2="58.3123967%" id="linearGradient-20">
            <stop stop-color="#00875A" offset="0%"></stop>
            <stop stop-color="#57D9A3" offset="100%"></stop>
        </linearGradient>
        <linearGradient x1="-0.273015873%" y1="49.6162651%" x2="99.7227513%" y2="49.6162651%" id="linearGradient-21">
            <stop stop-color="#00875A" offset="0%"></stop>
            <stop stop-color="#57D9A3" offset="100%"></stop>
        </linearGradient>
        <path d="M22.3379095,23.3881773 L0.301049994,23.3881773 L0.301049994,6.30147783 C0.301049994,2.84778325 3.07070994,0.060591133 6.50267986,0.060591133 L22.3379095,0.060591133 L22.3379095,23.3881773 Z" id="path-22"></path>
        <path d="M22.3379095,23.3881773 L0.301049994,23.3881773 L0.301049994,6.30147783 C0.301049994,2.84778325 3.07070994,0.060591133 6.50267986,0.060591133 L22.3379095,0.060591133 L22.3379095,23.3881773 Z" id="path-24"></path>
    </defs>
    <g id="Page-1" stroke="none" stroke-width="1" fill="none" fill-rule="evenodd">
        <g id="404/401" transform="translate(-1039.000000, -325.000000)">
            <g id="404-explorers" transform="translate(1124.000000, 415.000000) scale(-1, 1) translate(-1124.000000, -415.000000) translate(1038.000000, 325.000000)">
                <ellipse id="Oval" fill="url(#linearGradient-1)" fill-rule="nonzero" cx="48.7118312" cy="147.044335" rx="48.7118312" ry="6.65024631"></ellipse>
                <ellipse id="Oval" fill="url(#linearGradient-2)" fill-rule="nonzero" cx="109.970649" cy="172.906404" rx="48.7118312" ry="6.65024631"></ellipse>
                <path d="M114.383442,121.254746 L143.012973,122.098146 C146.501445,123.24276 148.907288,126.435631 149.087726,130.110445 C148.666703,142.159016 148.305827,154.207587 147.884804,166.256158 C145.599254,166.256158 143.313703,166.256158 140.968006,166.256158 C140.787568,163.123529 140.366545,160.352358 139.825231,157.942644 C138.562163,152.340058 136.998365,150.231558 136.096174,145.472373 C135.615005,143.122902 135.193983,139.50833 135.675152,134.869631 C132.848286,136.375702 129.059083,138.062502 124.247398,139.026388 C115.285633,140.833673 107.767373,139.267359 103.737587,138.062502 C102.715103,139.146873 101.69262,140.231245 100.670137,141.375859 C95.1968441,135.231088 92.4301248,127.158545 93.0917316,118.965517 L114.383442,121.254746 Z" id="Shape" fill="#344563" fill-rule="nonzero"></path>
                <path d="M115.875114,130.649743 C114.795475,140.948725 113.715836,151.247708 112.636198,161.486462 C111.676519,165.581964 108.077724,168.472906 103.879129,168.472906 L72.3296888,168.472906 L72.3296888,162.570566 L88.9441278,158.776204 C90.7435255,158.354608 92.6628831,158.173924 94.5222607,158.173924 L98.241016,158.173924 C98.9607751,158.173924 99.5005944,157.571644 99.4406145,156.848909 L97.7611766,140.165762 C97.6412168,139.262342 97.2813372,138.358923 96.681538,137.696415 L96.681538,137.696415 C95.4219596,136.250944 93.6825418,133.902053 92.4829433,130.469059 C90.7435255,125.40991 91.3433248,121.013268 91.7631842,118.965517 C99.8004941,122.940563 107.837804,126.795153 115.875114,130.649743 Z" id="Shape" fill="#42526E" fill-rule="nonzero"></path>
                <path d="M149.495851,160.70373 L149.495851,160.70373 C150.899496,164.950739 154.072955,168.36031 158.222863,170.095004 L159.870621,170.752991 C160.908097,171.17171 161.823518,171.949331 162.372771,172.906404 L162.372771,172.906404 L148.397346,172.547502 L146.566504,170.633357 L144.796691,172.487685 L140.341643,172.487685 L139.853418,171.17171 C139.243138,169.616467 138.937997,168.001407 138.876969,166.326531 L138.754913,160.344828 L140.158559,160.344828 C142.050428,160.344828 143.759214,161.361717 144.674635,162.91696 L144.857719,163.275862 L144.857719,163.275862 C145.77314,161.660802 147.603981,160.643913 149.495851,160.70373 L149.495851,160.70373 Z" id="Shape" fill="#253858" fill-rule="nonzero"></path>
                <path d="M80.2579972,169.049622 L80.2579972,169.049622 C75.8761741,168.623844 71.5535647,170.144479 68.3560181,173.246576 L67.1125278,174.463084 C66.2835342,175.253815 65.2768991,175.740418 64.2110503,175.862069 L64.2110503,175.862069 L69.9547914,163.271206 L72.4417721,162.358825 L71.4351371,159.986633 L73.152338,155.91133 L74.5734699,155.972155 C76.231457,156.032981 77.8302303,156.397933 79.3697898,157.067013 L84.8766756,159.378379 L84.3437512,160.655713 C83.6331853,162.358825 82.034412,163.575333 80.2579972,163.75781 L79.9027142,163.818635 L79.9027142,163.818635 C80.8501355,165.278445 81.0277769,167.285684 80.2579972,169.049622 L80.2579972,169.049622 Z" id="Shape" fill="#253858" fill-rule="nonzero"></path>
                <g id="Group" transform="translate(90.781140, 72.413793)" fill-rule="nonzero">
                    <path d="M62.617616,9.74912397 L57.5145505,10.1102026 C56.7941177,12.8182926 55.7735046,15.9476411 54.2726029,19.3177086 C52.471521,23.3497537 50.3702587,26.6596415 48.5691767,29.1871921 C47.4284915,28.8862932 45.5073374,28.3446752 43.2259669,27.4419786 C40.5843801,26.4189224 38.723262,25.4560459 36.9822162,24.5533492 C36.802108,24.2524504 36.5019276,24.0117312 36.2617834,23.8311919 C36.2617834,23.8311919 27.7966982,18.0539333 17.9507835,17.2114164 C14.8289081,16.9105175 12.1873212,17.572495 12.1873212,17.572495 C11.2867803,17.7530344 10.5063114,18.0539333 9.72584256,18.3548322 C9.72584256,21.1832817 10.3262032,25.2153268 9.36562617,28.5252146 C6.78407537,37.3114621 2.82169506,41.403687 0.420252456,45.9171703 C3.72223604,48.0234625 6.54393111,49.768676 9.96598682,51.6342491 C11.7670688,52.5971256 13.1478983,53.3794627 14.9489802,54.1617998 C17.5905671,55.3653954 21.5529474,56.8698898 26.716049,57.892946 C28.3370228,53.9210807 30.3182129,49.6483165 32.8397277,45.2551927 C33.3800522,44.2321365 35.2411703,40.2602712 36.5019276,35.9273272 C37.3424325,36.2884059 38.3030096,36.6494845 39.4436948,37.070743 C40.6444161,37.5521812 42.385462,38.2743385 44.7869046,38.7557768 C46.1677341,39.0566756 47.4885276,39.237215 48.0288522,39.237215 C52.6516292,39.4779341 58.054875,32.196181 60.5763898,26.238383 C63.2780127,19.7991468 63.0979045,13.6006297 62.617616,9.74912397 Z" id="Shape" fill="#42526E"></path>
                    <path d="M61.717075,10.6518206 C61.8971832,10.1102026 61.1767504,9.3880453 60.3362455,8.54552841 C59.7959209,8.00391042 59.1355242,7.34193286 57.994839,6.9808542 C56.8541537,6.61977553 56.7941177,7.04103397 55.6534324,6.61977553 C54.7528915,6.25869687 54.3926751,5.83743842 53.6122062,5.95779798 C53.1919538,6.01797776 52.6516292,6.25869687 52.6516292,6.55959575 C52.6516292,6.80031486 53.0718816,7.04103397 53.372062,7.16139353 C53.7923144,7.34193286 54.2726029,7.76319131 56.3138291,9.50840486 C57.7546947,10.7120004 57.5145505,10.83236 58.1149111,11.0730791 C59.4957406,11.7350566 61.4168947,11.4341577 61.717075,10.6518206 Z" id="Shape" fill="#F1DAD5"></path>
                    <g transform="translate(42.025246, 0.000000)" id="Shape">
                        <path d="M36.3218194,0.661977553 L36.5019276,6.19851709 L23.4741015,6.61977553 C23.1739212,6.61977553 22.9337769,6.37905642 22.8737408,6.07815753 L22.6936326,1.62485399 C22.6936326,1.32395511 22.9337769,1.083236 23.2339572,1.02305622 L36.3218194,0.661977553 Z" fill="url(#linearGradient-3)"></path>
                        <path d="M22.7536687,1.80539333 L22.8737408,5.95779798 L11.4068524,6.37905642 C11.1066721,6.37905642 10.8064917,6.13833731 10.8064917,5.83743842 L10.6864196,2.82844955 C10.6864196,2.52755066 10.9265639,2.22665177 11.2267442,2.22665177 L22.7536687,1.80539333 Z" fill="url(#linearGradient-4)"></path>
                        <polygon fill="url(#linearGradient-5)" points="10.7464557 3.00898888 10.8064917 5.59671931 1.14068524 5.95779798 1.02061311 3.37006754"></polygon>
                        <path d="M1.02061311,2.9488091 L1.14068524,6.37905642 C1.14068524,6.55959575 1.02061311,6.74013509 0.840504913,6.74013509 L0.540324587,6.74013509 C0.360216391,6.74013509 0.180108196,6.61977553 0.180108196,6.4392362 L0.0600360652,3.00898888 C0.0600360652,2.82844955 0.180108196,2.64791021 0.360216391,2.64791021 L0.660396717,2.64791021 C0.840504913,2.58773044 1.02061311,2.76826977 1.02061311,2.9488091 Z" fill="#FFAB00"></path>
                        <path d="M37.8827571,0.601797776 L38.0628653,6.13833731 C38.0628653,6.4392362 37.8227211,6.67995531 37.5225407,6.67995531 L37.0422522,6.67995531 C36.7420719,6.67995531 36.5019276,6.4392362 36.5019276,6.13833731 L36.3218194,0.601797776 C36.3218194,0.300898888 36.5619637,0.0601797776 36.862144,0.0601797776 L37.3424325,0.0601797776 C37.6426129,0.0601797776 37.8827571,0.300898888 37.8827571,0.601797776 Z" fill="#FFAB00"></path>
                    </g>
                    <path d="M57.1543341,9.44822508 C58.2950193,10.7721802 58.5951996,10.9527195 58.8353439,11.0730791 C59.1355242,11.2536184 59.855957,11.6146971 60.5763898,11.5545173 C62.3174357,11.373978 63.6982652,8.72606775 63.518157,6.55959575 C63.4581209,5.65689909 63.1579406,4.99492154 62.6776521,3.97186532 C62.0772914,2.70808999 61.717075,2.52755066 61.4769308,2.52755066 C61.1167144,2.46737088 60.816534,2.76826977 60.6364258,2.9488091 C60.3362455,1.98593266 60.0360652,1.68503377 59.7358849,1.62485399 C59.1955603,1.50449444 58.4150914,2.10629221 58.4150914,2.10629221 C58.2950193,1.98593266 57.6346226,1.14341577 57.1543341,1.32395511 C56.9742259,1.38413488 56.9141898,1.56467422 56.6740455,2.22665177 C56.193757,3.55060688 56.3138291,3.55060688 56.133721,3.73114621 C55.5933964,4.39312376 54.6928554,3.97186532 54.2726029,4.57366309 C54.0324587,4.93474176 54.1525308,5.41617998 54.2125669,5.71707887 C54.3926751,6.4392362 54.7528915,6.67995531 55.7134685,7.76319131 C56.4339013,8.48534864 56.2537931,8.36498908 57.1543341,9.44822508 Z" id="Shape" fill="#F1DAD5"></path>
                </g>
                <g id="Group" transform="translate(70.115515, 0.000000)">
                    <polygon id="Shape" fill="url(#linearGradient-6)" fill-rule="nonzero" points="12.9072861 46.005647 0.180943264 42.3831551 7.29804497 3.68286675 20.9291042 5.01111378"></polygon>
                    <polygon id="Shape" fill="#EBECF0" fill-rule="nonzero" points="28.4080924 44.5566502 12.9072861 46.005647 20.9291042 5.01111378 37.6965133 0.543373783"></polygon>
                    <polygon id="Shape" fill="url(#linearGradient-7)" fill-rule="nonzero" points="44.9342438 49.14514 28.4080924 44.5566502 37.6965133 0.543373783 55.5495819 2.0527454"></polygon>
                    <line x1="13.9326313" y1="4.2866154" x2="6.33301423" y2="44.1340262" id="Shape" stroke="#C1C7D0" stroke-width="1.23576"></line>
                    <line x1="29.0112366" y1="2.95836838" x2="20.3862744" y2="45.4018984" id="Shape" stroke="#C1C7D0" stroke-width="1.23576"></line>
                    <line x1="46.2611611" y1="1.38862189" x2="36.369596" y2="46.8508951" id="Shape" stroke="#C1C7D0" stroke-width="1.23576"></line>
                    <polyline id="Shape" stroke="#C1C7D0" stroke-width="1.23576" points="1.74911822 33.6287997 14.7167188 36.7682927 30.5190971 34.6551724 47.3468207 38.5191638"></polyline>
                    <polyline id="Shape" stroke="#C1C7D0" stroke-width="1.23576" points="3.73949412 22.8820738 16.9483524 25.3574432 33.0523028 22.4594497 50.2419129 25.478193"></polyline>
                    <polyline id="Shape" stroke="#C1C7D0" stroke-width="1.23576" points="5.79018444 11.9542232 19.2403004 13.7654692 35.7061374 9.9618527 53.2576339 12.1353478"></polyline>
                    <path d="M3.01572106,41.0549081 C3.49823643,39.9681605 6.63458633,33.0250511 12.4247708,31.0930554 C13.3294871,30.7911811 14.4151467,30.5496816 15.7420639,30.6100565 C18.2752696,34.7155473 22.9797945,35.8626697 26.9002319,33.7495494 C30.1572106,31.9986784 31.7253856,28.4969362 32.0872721,27.5309384 C32.931674,27.1686892 35.4045653,25.9611919 37.3949412,23.1839481 C38.7821728,21.1915776 39.2646882,19.3803316 39.4456315,18.4143338" id="Shape" stroke="url(#linearGradient-8)" stroke-width="1.23576"></path>
                    <path d="M43.4866977,12.6183467 C43.1851256,14.0673435 41.7978939,15.2144659 40.4106622,15.2748408 C39.0837449,15.3352157 38.2393431,14.2484681 38.4806007,12.8598462 C38.7821728,11.4712243 40.1090901,10.263727 41.4963218,10.2033522 C42.8835535,10.0826024 43.7882698,11.16935 43.4866977,12.6183467 Z" id="Shape" fill="#0065FF" fill-rule="nonzero"></path>
                </g>
                <path d="M115.137056,40.6403941 L115.137056,37.1569317 C115.137056,36.4235712 115.305678,35.7513241 115.586715,35.079077 C115.755337,34.8346235 115.980166,34.4679433 116.204996,33.9790363 C116.54224,33.123449 116.54224,32.5123153 116.767069,32.5123153 C116.991899,32.5123153 117.216728,33.123449 117.216728,33.1845624 C117.441558,33.8568095 117.329143,34.4068299 117.272935,34.6512834 C117.160521,35.2624171 117.104313,36.1180044 117.272935,37.3402719 L115.137056,40.6403941 Z" id="Shape" fill="#A27F68" fill-rule="nonzero"></path>
                <path d="M115.524534,41.2982098 C114.807695,40.4196203 115.166114,38.6038688 115.94269,37.3738436 C116.241373,36.9638352 116.838739,36.670972 117.615315,35.6752373 C117.854261,35.3823741 118.033471,35.089511 118.152944,34.9137931 C118.332154,34.0937763 118.571101,33.2737595 118.75031,32.5123153 C119.28794,33.5666226 119.586623,34.4452121 119.825569,35.089511 C119.825569,35.089511 119.825569,35.089511 119.825569,35.089511 C120.124252,35.8509552 120.064516,36.2609636 120.243725,37.3152709 C120.303462,37.6667067 120.303462,37.7252793 120.303462,37.8424246 C120.303462,38.3110056 120.064516,38.7210141 119.885306,38.9553046 C117.913998,41.415355 117.316632,42.059654 117.256895,42.1182266 C117.256895,42.1182266 117.137422,42.1182266 117.137422,42.1182266 L117.137422,42.1182266 L117.137422,42.1182266 C117.137422,42.1182266 116.002427,41.9425087 115.524534,41.2982098 Z" id="Shape" fill="#A27F68" fill-rule="nonzero"></path>
                <path d="M69.3322617,24.1949002 C69.5694767,24.9571268 68.7985281,25.5434549 68.7392243,27.3610721 C68.6799206,28.5923612 69.035743,29.589119 69.3322617,30.2927128 C64.528659,32.11033 60.4367012,32.2862285 59.4285376,30.6445097 C59.0134115,29.9409159 59.0134115,28.8855253 59.0727152,27.4783377 C59.132019,25.9538846 59.1913227,24.6639627 59.8436638,23.7844705 C61.8006871,21.0873611 68.7392243,22.1427517 69.3322617,24.1949002 Z" id="Shape" fill="#72594B" fill-rule="nonzero"></path>
                <path d="M53.3815131,60.6762041 C53.5605531,60.1362537 53.8589532,59.5363089 54.1573532,58.8763696 C54.5751133,58.0964414 54.9928734,57.4365021 55.4106335,56.8965517 C55.8283936,56.9565462 56.5445537,57.1365297 57.4397539,57.1965241 C58.2155941,57.2565186 58.8123942,57.3165131 59.1107943,57.3165131 C60.9608747,57.4365021 64.4819955,57.556491 74.2098376,57.6164855 C74.6275977,58.0964414 75.2243978,58.7563807 75.8211979,59.5963034 C78.0293584,62.7160165 78.6261585,65.6557461 78.8051986,66.9156302 C82.6247194,88.0336877 82.8037594,96.0129538 82.8037594,96.0129538 C82.8037594,96.0129538 83.2811995,110.711602 83.4005596,126.670134 C83.2811995,127.030101 82.9827995,127.570051 82.4456793,128.110002 C81.1923991,129.369886 79.5213587,129.310345 79.1035986,129.310345 C77.4922383,129.310345 76.358318,128.529963 75.9405579,128.229991 C74.0307975,124.810305 73.0162373,121.690592 72.3597572,119.470796 C71.1661569,115.151193 71.1064769,111.671514 71.1064769,110.351635 C71.0467969,106.811961 71.583917,103.812236 72.1210371,101.652435 C71.3451969,99.2526558 70.3903167,96.6128986 69.1967165,93.913147 C66.988556,88.9935995 64.5416755,84.8539802 62.214155,81.4942892 C61.7963949,89.5935443 61.3189548,97.8127883 60.8415147,106.092027 C60.4834346,112.091475 60.0656745,118.090923 59.6479144,124.030377 C59.2898343,124.330349 57.857514,125.41025 55.8283936,125.230266 C54.2767133,125.110277 53.262153,124.390344 52.8443929,124.030377 C51.7104727,120.850669 50.2781524,115.271182 51.2927126,108.551801 C51.7104727,105.852049 52.4266329,103.572259 53.142793,101.71243 C51.5314327,95.2330256 50.8152725,89.7135332 50.4571924,85.5139195 C50.4571924,85.5139195 49.4426322,73.3950342 51.3523926,66.2556909 C51.8895127,64.7558288 52.963753,61.8760937 53.3815131,60.6762041 Z" id="Shape" fill="url(#linearGradient-9)" fill-rule="nonzero"></path>
                <path d="M83.9665896,125.615764 C83.2985382,126.149745 81.7802395,127.099046 79.4116935,127.514365 C77.650467,127.811021 76.1929002,127.692359 75.281921,127.514365 C75.8892405,130.658923 76.49656,133.210168 76.9824156,134.990107 C77.9541267,138.727978 78.865106,141.279223 78.865106,145.135757 C78.865106,145.966395 78.804374,146.678371 78.7436421,147.09369 L83.1770743,147.449677 C83.4200021,147.271684 83.7236618,147.034358 83.9665896,146.856364 C84.3309813,147.09369 84.695373,147.331015 85.0597647,147.56834 L96.2951752,148.517641 C97.0239585,148.576972 97.5705461,148.04299 97.3883502,147.509009 L97.3883502,147.509009 L93.0156499,145.966395 C88.4607538,144.36445 85.3634244,140.863904 85.0597647,136.948039 C84.8775689,134.337463 84.6346411,131.43023 84.3917133,129.294303 C84.2702494,128.167009 84.0880535,126.861721 83.9665896,125.615764 Z" id="Shape" fill="#172B4D" fill-rule="nonzero"></path>
                <path d="M55.5505463,123.019571 C54.1538415,123.019571 52.817863,122.959659 51.6640634,122.839835 C52.0284212,125.895353 52.4535053,128.351751 52.817863,130.02929 C53.6073049,134.103315 54.032389,136.379976 53.9716627,139.794967 C53.9716627,140.99321 53.9109364,141.951804 53.8502101,142.610837 C55.1861886,142.550925 56.5221671,142.491013 57.9188718,142.431101 C57.9795981,142.311277 58.161777,142.13154 58.3439559,141.951804 C58.4654085,141.83198 58.6475874,141.772068 58.7083137,141.712156 C59.0726715,141.951804 59.3763029,142.191453 59.7406607,142.491013 C63.4449647,142.431101 67.1492687,142.431101 70.8535727,142.371189 C70.7321201,141.891892 70.5499412,141.292771 70.0034046,140.933298 C69.5783205,140.633737 69.1532365,140.693649 68.4245209,140.573825 C67.9387105,140.454001 67.2707213,140.274264 66.4205532,139.794967 C64.5987643,137.757955 61.6839021,133.803754 60.6515551,128.112102 C60.2871974,126.07509 60.2264711,124.217814 60.3479236,122.660099 C59.0119452,122.899747 57.3723352,123.019571 55.5505463,123.019571 Z" id="Shape" fill="#172B4D" fill-rule="nonzero"></path>
                <path d="M51.8391671,38.1434297 C51.1156224,35.0811221 52.6833026,31.8987239 55.6377767,30.7578642 C55.6377767,30.7578642 55.6980721,30.7578642 55.6980721,30.697819 C67.9380364,26.0743349 79.2735698,31.3583167 80.4794776,31.9587692 C84.5795641,33.9402624 87.4134475,36.522208 89.3429,38.2635202 C92.3576695,40.9655563 94.5283036,43.6675925 96.0356883,45.6490856 C99.3519348,44.8684974 102.969658,43.8477282 106.768268,42.5267328 C109.843333,41.4459183 112.737511,40.3050586 115.330213,39.1641989 C116.053758,39.9447871 116.837598,40.8454658 117.621438,41.866235 C118.043506,42.4066423 118.465574,42.9470495 118.827346,43.4874567 C116.475826,45.2287689 114.486078,46.5497644 113.099284,47.3903978 C102.306409,54.3556465 97.6636639,55.1362348 94.5283036,54.956099 C93.4429865,54.8960538 92.7194418,54.7759633 92.5988511,54.6558728 C90.1267401,52.9746059 87.5943337,51.1132032 85.0016319,49.0716648 C82.1074531,46.8499906 78.4294343,43.6675925 78.3691389,45.1086784 C78.3088435,47.2102621 77.2235265,48.7113933 76.8014588,49.4319362 C75.7161417,51.2332937 75.0528925,54.3556465 76.9823449,60.3601713 C71.3748736,61.4409858 67.2144917,61.4409858 64.7423807,61.2008048 C59.3157955,60.7204428 58.1098877,60.3001261 53.5274381,59.3994473 C53.7686196,57.2978637 53.9495058,54.8960538 53.8892104,52.1339724 C53.828915,48.4712123 53.3465519,45.7091309 52.8641888,43.1872305 C52.6230072,41.6860993 52.3215303,40.0048324 51.8391671,38.1434297 Z" id="Shape" fill="url(#linearGradient-10)" fill-rule="nonzero"></path>
                <path d="M67.0789267,11.0837438 C68.5070887,12.4457184 69.9947573,15.1696675 70.5898248,16.5908584 C70.7088383,16.8277235 70.7088383,16.9461561 71.244399,17.2422375 C71.7799598,17.5383189 72.434534,17.6567515 72.3155205,18.0120492 C72.196507,18.3673469 71.4229193,18.9002935 71.3634125,19.1963749 L72.0774935,24.4666243 L69.9352506,25.2956523 L62.7349342,28.0788177 C62.8539477,27.7827363 65.4722445,20.6175658 65.4722445,20.2030518 C65.4722445,19.7885378 65.3532311,18.9595098 65.829285,18.7226447 C66.305339,18.4857795 67.0789267,14.3406395 67.3169537,13.7484767 C67.5549807,13.1563138 67.495474,13.0378813 67.3764605,12.2680695 C67.1384335,11.6166904 67.0789267,11.0837438 67.0789267,11.0837438 Z" id="Shape" fill="#72594B" fill-rule="nonzero"></path>
                <path d="M55.1017633,24.6726453 C55.9262387,25.5195929 57.6929717,27.4554732 60.4019624,27.3344807 C63.3465174,27.2134882 66.1143991,24.7331416 66.2321813,22.5552762 C66.2910724,21.5873361 65.7610525,20.9218772 65.9966169,19.1674857 C66.1143991,18.3205381 66.4088546,17.1711092 66.8210923,17.1106129 C67.2922211,17.0501167 67.5866766,18.2600418 67.8811321,18.1995456 C68.1755876,18.1390493 68.1755876,16.8081316 68.1755876,16.0821765 C68.1755876,12.7548823 68.8233897,12.5733935 68.5878253,11.302972 C68.0578054,8.82262541 65.4077059,7.43121145 65.0543593,7.31021893 C61.7564577,5.67681993 58.3407738,7.55220397 57.7518628,7.85468526 C53.6883769,10.0930469 51.8038617,15.2957251 52.569446,19.5304633 C52.6872282,20.1959221 53.158357,22.6157725 55.1017633,24.6726453 Z" id="Shape" fill="#253858" fill-rule="nonzero"></path>
                <path d="M48.56967,17.2181824 C49.1750731,17.8820938 50.5675001,19.270272 52.6258705,19.2099164 C54.9264021,19.1495609 57.0453128,17.278538 57.1058531,15.5885819 C57.1663934,14.864315 56.7426113,14.3211148 56.9242322,13.0536477 C56.9847725,12.450092 57.2269338,11.5447583 57.5901756,11.5447583 C57.9534174,11.5447583 58.1955786,12.3897364 58.4377399,12.3897364 C58.6799011,12.3293808 58.6799011,11.3636916 58.6799011,10.8204914 C58.6799011,8.34591281 59.2247638,8.22520166 58.9826026,7.19915688 C58.5588205,5.32813403 56.5004501,4.30208925 56.2582889,4.18137809 C53.715596,2.97426658 51.0518225,4.36244482 50.6280404,4.60386712 C47.4799445,6.29382324 46.0269771,10.1565801 46.6323802,13.3554256 C46.7534608,13.8986258 47.0561623,15.709293 48.56967,17.2181824 Z" id="Shape" fill="#253858" fill-rule="nonzero"></path>
                <path d="M109.970649,90.6918609 C113.599435,91.5153298 117.289725,92.2799794 120.91851,93.1034483 C120.549481,92.2799794 119.934433,90.6330417 120.180452,88.3979119 C120.364967,86.2216014 121.287539,84.692302 121.779578,83.9276524 C118.458317,83.0453643 115.075551,82.1630762 111.75429,81.2807882 C111.938804,82.3395339 112.061814,83.9864716 111.75429,85.8686861 C111.385261,88.1038159 110.585698,89.6919344 109.970649,90.6918609 Z" id="Shape" fill="#EACBC6" fill-rule="nonzero"></path>
                <path d="M126.985509,72.4137931 C127.702217,74.8046796 127.642491,78.7281855 127.463314,80.6899385 C127.403589,80.9964624 127.941119,82.7129963 128.359199,83.3260441 C128.777278,83.9390919 126.985509,83.7551776 126.686881,84.0617015 L124.954838,88.7208648 C124.596484,89.7017413 123.640874,90.2534844 122.625538,90.1308748 L121.550477,90.0082652 L116.354347,88.4143409 C114.861206,87.9852075 114.025047,86.3299784 114.562578,84.7973589 C115.75709,81.2416816 117.250231,80.0155859 118.444744,79.6477573 C119.280903,79.4025381 119.579531,79.6477573 120.774043,79.2186238 C122.86444,78.4829664 123.939502,76.8890421 125.552094,75.5403369 C125.61182,75.4790322 125.850722,75.2951178 126.029899,75.0498987 C126.328527,74.68207 126.388253,74.3142413 126.507704,73.9464126 C126.56743,73.5785839 126.746607,73.0268409 126.985509,72.4137931 Z" id="Shape" fill="#F1DAD5" fill-rule="nonzero"></path>
                <path d="M126.865535,73.056152 L126.568359,74.1532225 C125.7957,77.1396921 123.65603,79.5776266 120.862572,80.7965938 L120.446525,80.6137487 C119.852173,80.3699552 119.198385,80.3090069 118.604032,80.6137487 C117.653067,81.0403872 117.177585,82.0765093 117.355891,83.0516831 L117.534197,84.1487536 C117.355891,84.6972888 116.939844,85.7943593 115.870009,86.7695331 C115.870009,86.7695331 115.870009,86.7695331 115.870009,86.7695331 C115.453962,87.1352233 114.919045,87.0742749 114.621868,87.0742749 C113.730339,87.0742749 113.552033,87.8666036 112.957681,87.927552 C111.82841,88.0494487 110.639705,84.9410823 110.045352,83.3564249 C108.856646,80.1261618 108.440599,78.5415044 108.500035,76.6521052 C108.55947,74.8236544 109.56987,73.056152 110.69914,71.715288 C110.936881,71.4105462 112.006716,70.0696823 114.086951,68.8507151 C116.10775,67.6317479 119.079514,65.803297 122.289019,66.7784708 C122.764501,66.9003675 125.557959,67.6926962 126.508924,70.3134757 C127.043841,71.4105462 126.984406,72.4466684 126.865535,73.056152 Z" id="Shape" fill="#172B4D" fill-rule="nonzero"></path>
                <g id="Group" transform="translate(90.043082, 86.453202)">
                    <g transform="translate(1.788371, 0.000000)">
                        <g id="XMLID_110_-link" fill="#B3BAC5" fill-rule="nonzero">
                            <path d="M20.3874343,28.354232 L0.298061904,20.1925661 L6.49774952,4.47380206 C7.74960952,1.26959248 11.3263524,-0.241827138 14.4858086,1.02776534 L28.9120047,6.89207344 L20.3874343,28.354232 Z" id="XMLID_110_"></path>
                        </g>
                        <g id="Clipped">
                            <mask id="mask-12" fill="white">
                                <use xlink:href="#path-11"></use>
                            </mask>
                            <g id="XMLID_110_"></g>
                            <path d="M18.3606133,12.3936408 L6.43813714,7.55709807 C5.90162571,7.31527094 5.6035638,6.71070309 5.84201333,6.16659203 L9.83604285,-3.99014778 L23.7257276,1.69278997 L19.7316981,11.8495298 C19.5528609,12.3331841 18.8971247,12.5750112 18.3606133,12.3936408 Z" id="Shape" fill="#DFE1E5" fill-rule="nonzero" mask="url(#mask-12)"></path>
                        </g>
                        <g id="Clipped">
                            <mask id="mask-14" fill="white">
                                <use xlink:href="#path-13"></use>
                            </mask>
                            <g id="XMLID_110_"></g>
                            <polygon id="Rectangle-path" fill="#DFE1E5" fill-rule="nonzero" mask="url(#mask-14)" transform="translate(22.652705, 7.556463) rotate(21.888655) translate(-22.652705, -7.556463) " points="17.1067275 4.59236124 28.1963016 4.59682122 28.198682 10.5205653 17.1091079 10.5161053"></polygon>
                        </g>
                    </g>
                    <path d="M22.1758057,28.354232 L15.9761181,25.815047 L23.4872781,6.89207344 C24.0237895,5.5015674 25.6333238,4.77608598 27.0640209,5.38065383 L30.7599885,6.89207344 L22.1758057,28.354232 Z" id="Shape" fill="#EBECF0" fill-rule="nonzero"></path>
                    <path d="M2.56333238,27.6892073 L13.4723981,32.1630094 C15.2011571,32.8884908 17.1087533,32.0420958 17.8241019,30.2888491 L17.8241019,30.2888491 C18.5394505,28.5356023 17.7048771,26.6009852 15.9761181,25.8755038 L5.06705238,21.4017017 C3.33829333,20.6762203 1.43069714,21.5226153 0.715348571,23.2758621 L0.715348571,23.2758621 C-1.60982339e-15,25.0291088 0.834573332,27.0241827 2.56333238,27.6892073 Z" id="Shape" fill="#C1C7D0" fill-rule="nonzero"></path>
                    <path d="M14.7242581,32.6466637 L14.7242581,32.6466637 C12.995499,31.9211823 12.1609257,29.9865652 12.8762743,28.2333184 L12.8762743,28.2333184 C13.5916228,26.4800717 15.499219,25.6336767 17.2279781,26.3591581 L17.2279781,26.3591581 C18.9567371,27.0846395 19.7913105,29.0192566 19.0759619,30.7725034 L19.0759619,30.7725034 C18.3606133,32.4652933 16.3934047,33.3116883 14.7242581,32.6466637 Z" id="Shape" fill="#FAFBFC" fill-rule="nonzero"></path>
                </g>
                <g id="Group" transform="translate(105.542301, 62.068966)" fill-rule="nonzero">
                    <polygon id="Shape" fill="#5E6C84" points="0.362319406 21.6881907 26.1473838 8.0881374 19.8067942 5.03261883 1.20773135 14.7982958"></polygon>
                    <path d="M19.7464076,5.09253095 C16.7874658,0.659033418 10.8695822,-0.898681933 6.03865677,1.61762748 C1.02657165,4.25376115 0.120773135,10.4247104 0.966185082,14.0194382 C1.02657165,14.3189988 1.14734479,14.6185594 1.20773135,14.7982958" id="Shape" fill="#7A869A"></path>
                </g>
                <path d="M124.73181,163.344717 L125.583416,164.135228 C125.826732,164.378463 126.130876,164.50008 126.49585,164.560888 L126.617508,164.560888 C127.164969,164.682506 127.590771,164.986548 127.894916,165.473017 L127.894916,165.473017 C128.077403,165.837868 128.442377,166.141911 128.807351,166.263528 C129.111495,166.385146 129.354811,166.567571 129.537298,166.810805 C129.537298,166.567571 129.41564,166.263528 129.354811,166.020294 L129.354811,166.020294 C129.050666,165.412208 129.050666,164.682506 129.354811,164.07442 L129.354811,164.07442 C129.598127,163.587951 129.658956,163.040674 129.537298,162.554206 L129.537298,162.554206 C129.354811,161.885311 129.537298,161.216417 129.902272,160.66914 L130.02393,160.547523 C130.267246,160.182671 130.449733,159.757011 130.449733,159.331351 L130.57139,157.871946 L131.362167,159.148926 C131.605483,159.513777 131.909628,159.81782 132.33543,160.000246 L132.517917,160.061054 C133.126207,160.365097 133.55201,160.912374 133.734496,161.581269 L133.734496,161.581269 C133.856154,162.006928 134.09947,162.37178 134.403615,162.675823 C134.464444,162.554206 134.586102,162.432588 134.646931,162.310971 L134.646931,162.310971 C135.072734,161.824503 135.25522,161.216417 135.316049,160.608331 L135.316049,160.547523 C135.316049,159.696203 135.741852,158.905691 136.410971,158.419223 L136.410971,158.419223 C136.958431,158.054371 137.323405,157.446286 137.445063,156.8382 L137.445063,156.777391 C137.62755,155.98688 138.17501,155.257177 138.904958,154.892326 L139.087445,154.770709 C139.574077,154.527474 139.999879,154.162623 140.243195,153.736963 L141.15563,152.216749 L141.277287,154.041006 C141.338116,154.588283 141.520603,155.074752 141.824748,155.500412 L141.946406,155.682837 C142.433038,156.351732 142.615525,157.203051 142.433038,157.993563 L142.433038,157.993563 C142.250551,158.601649 142.372209,159.270543 142.676354,159.878629 C142.980498,160.547523 143.041327,161.277226 142.85884,161.94612 C143.223814,161.52046 143.771275,161.277226 144.318735,161.216417 L144.501222,161.216417 C144.927025,161.155609 145.352828,161.033991 145.717802,160.729949 L146.873552,159.81782 L146.447749,161.216417 C146.326091,161.642077 146.326091,162.067737 146.447749,162.493397 L146.508578,162.675823 C146.691065,163.344717 146.569407,164.013611 146.204433,164.560888 L146.204433,164.560888 C145.900288,164.986548 145.77863,165.533826 145.839459,166.081103 C145.900288,166.749997 145.656973,167.418891 145.170341,167.90536 L145.170341,167.90536 C144.805367,168.270211 144.562051,168.695871 144.501222,169.243148 L144.501222,169.243148 C144.379564,169.972851 144.014591,170.580937 143.345472,170.88498 L143.345472,170.88498 C142.919669,171.128214 142.554696,171.553874 142.372209,171.979534 L142.372209,171.979534 C142.128893,172.648428 141.581432,173.074088 140.912314,173.317322 L140.912314,173.317322 C140.425682,173.43894 139.93905,173.803791 139.634906,174.229451 L139.634906,174.229451 C139.269932,174.776728 138.661642,175.14158 137.992524,175.202388 L137.810037,175.202388 C137.384234,175.263197 136.958431,175.384814 136.593458,175.688857 L135.559365,176.479368 L134.70776,176.296942 C134.464444,175.932091 134.160299,175.628048 133.734496,175.445622 L133.55201,175.384814 C133.247865,175.202388 132.94372,174.959154 132.700404,174.71592 C132.700404,174.837537 132.639575,174.959154 132.578746,175.080771 L132.517917,175.202388 C132.396259,175.506431 132.33543,175.871282 132.457088,176.236134 L131.848799,176.600985 C131.605483,176.357751 131.301338,176.236134 130.936364,176.175325 L130.814706,176.175325 C130.267246,176.053708 129.841443,175.749665 129.537298,175.263197 L129.537298,175.263197 C129.354811,174.898345 128.989838,174.594302 128.624864,174.472685 C128.138232,174.29026 127.712429,173.8646 127.529942,173.317322 L127.529942,173.317322 C127.408285,172.952471 127.164969,172.58762 126.799995,172.344385 L126.799995,172.344385 C126.313363,172.040342 126.070047,171.493065 126.009218,170.945788 L126.009218,170.945788 C126.009218,170.520128 125.826732,170.155277 125.583416,169.851234 L125.583416,169.851234 C125.218442,169.425574 125.096784,168.878297 125.157613,168.33102 L125.157613,168.33102 C125.218442,167.90536 125.157613,167.4797 124.975126,167.114848 L124.975126,167.114848 C124.73181,166.62838 124.670981,166.081103 124.853468,165.594634 L124.914297,165.473017 C125.035955,165.168974 125.096784,164.804123 124.975126,164.439271 L124.73181,163.344717 Z" id="Shape" fill="url(#linearGradient-15)" fill-rule="nonzero"></path>
                <g id="Group" transform="translate(30.998438, 109.359606)" fill-rule="nonzero">
                    <path d="M16.749399,36.2623153 C16.749399,36.2623153 16.749399,36.2623153 16.749399,36.2623153 C16.749399,36.2623153 15.1226588,32.9002463 14.9419099,31.6995074 C13.6164179,23.294335 12.110177,14.8891626 10.4231871,6.60406404 C10.1821886,5.46336207 10.2424382,0.480295567 10.2424382,0.480295567 L10.2424382,0.480295567 C10.2424382,0.480295567 12.2909259,5.04310345 12.5319244,6.18380542 C14.2189143,14.5289409 15.7251552,22.8740764 17.0506472,31.3392857 C17.2916457,32.5400246 16.749399,36.2623153 16.749399,36.2623153 Z" id="Shape" fill="url(#linearGradient-16)"></path>
                    <path d="M16.9903975,38.2435345 C16.9903975,38.2435345 16.9903975,38.2435345 16.9903975,38.2435345 C17.0506472,38.2435345 15.1226588,35.0015394 14.761161,33.9208744 C12.4716748,25.6958128 9.0374455,17.6508621 4.57897239,9.90609606 C3.97647602,8.82543103 2.83173292,3.96243842 2.83173292,3.96243842 C2.83173292,3.96243842 2.83173292,3.96243842 2.83173292,3.96243842 C2.89198256,3.96243842 7.10945713,7.92487685 7.65170386,9.06557882 C11.8691784,16.9304187 15.0021595,25.1554803 17.0506472,33.4405788 C17.2916457,34.5212438 16.9903975,38.2435345 16.9903975,38.2435345 Z" id="Shape" fill="url(#linearGradient-17)"></path>
                    <path d="M16.9903975,38.4236453 C16.9903975,38.4236453 16.9903975,38.4236453 16.9903975,38.4236453 C16.9903975,38.4236453 15.4841566,34.9415025 15.423907,33.7407635 C14.7009113,25.0954433 14.8214106,16.4501232 15.7854048,7.8648399 C15.9059041,6.66410099 17.6531435,1.92118227 17.7133932,1.98121921 L17.7133932,1.98121921 C17.7133932,1.98121921 18.074891,7.02432266 17.9543917,8.16502463 C16.9903975,16.630234 16.8698983,25.1554803 17.5928939,33.6206897 C17.6531435,34.7613916 16.9301479,38.4236453 16.9903975,38.4236453 Z" id="Shape" fill="url(#linearGradient-18)"></path>
                    <g transform="translate(0.000000, 17.410714)" id="Shape">
                        <path d="M16.086653,16.0899015 C13.4959186,10.7466133 10.4231871,5.46336207 6.80820894,0.420258621 C5.84421476,0.480295567 4.81997093,0.540332512 3.85597675,0.660406404 C7.83245277,5.94365764 11.2064324,11.4070197 14.0381653,16.9904557 C14.5804121,18.0110837 17.0506472,20.8328202 17.0506472,20.8328202 C17.0506472,20.8328202 17.0506472,20.8328202 17.0506472,20.8328202 C17.0506472,20.8328202 16.6288997,17.1105296 16.086653,16.0899015 Z" fill="url(#linearGradient-19)"></path>
                        <path d="M3.6149782,7.80480296 C3.13298111,8.88546798 0.301248183,13.2081281 0.36149782,13.268165 L0.36149782,13.268165 C0.36149782,13.268165 0.783245277,8.28509852 1.26524237,7.2044335 C2.04848765,5.04310345 2.9522322,2.8817734 3.91622638,0.72044335 C4.88022057,0.600369458 5.90446439,0.540332512 6.86845858,0.480295567 C5.66346585,2.8817734 4.57897239,5.34328818 3.6149782,7.80480296 Z" fill="#79F2C0"></path>
                    </g>
                    <g transform="translate(15.664906, 14.408867)" id="Shape">
                        <path d="M0.0602496367,18.9716749 C0.18074891,13.0280172 0.843494913,7.02432266 1.98823801,0.960591133 C2.9522322,0.600369458 3.85597675,0.300184729 4.81997093,2.84217094e-14 C3.43422929,6.36391626 2.59073438,12.7278325 2.28948619,18.9716749 C2.22923656,20.1123768 1.08449346,23.7145936 1.08449346,23.7145936 L1.08449346,23.7145936 C1.1447431,23.6545567 0.0602496367,20.1123768 0.0602496367,18.9716749 Z" fill="url(#linearGradient-20)"></path>
                        <path d="M8.13370095,6.36391626 C9.0374455,7.14439655 13.435669,9.966133 13.435669,10.02617 L13.435669,10.02617 C13.435669,10.02617 10.9654339,5.64347291 10.0616893,4.86299261 C8.3746995,3.24199507 6.68770967,1.62099754 4.88022057,0.0600369458 C3.91622638,0.360221675 3.01248183,0.72044335 2.04848765,1.02062808 C4.15722493,2.70166256 6.14546294,4.50277094 8.13370095,6.36391626 Z" fill="url(#linearGradient-21)"></path>
                    </g>
                </g>
                <g id="Group" transform="translate(45.759599, 30.295567)">
                    <g>
                        <g id="XMLID_111_-link" fill="#B3BAC5" fill-rule="nonzero">
                            <path d="M22.3379095,23.3881773 L0.301049994,23.3881773 L0.301049994,6.30147783 C0.301049994,2.84778325 3.07070994,0.060591133 6.50267986,0.060591133 L22.3379095,0.060591133 L22.3379095,23.3881773 Z" id="XMLID_111_"></path>
                        </g>
                        <g id="Clipped">
                            <mask id="mask-23" fill="white">
                                <use xlink:href="#path-22"></use>
                            </mask>
                            <g id="XMLID_111_"></g>
                            <path d="M13.9687197,9.14926108 L1.80629996,9.14926108 C0.96335998,9.14926108 0.240839995,8.42216749 0.240839995,7.57389163 L0.240839995,-2.96896552 L15.4739697,-2.96896552 L15.4739697,7.57389163 C15.5341797,8.48275862 14.8116597,9.14926108 13.9687197,9.14926108 Z" id="Shape" fill="#DFE1E5" fill-rule="nonzero" mask="url(#mask-23)"></path>
                        </g>
                        <g id="Clipped">
                            <mask id="mask-25" fill="white">
                                <use xlink:href="#path-24"></use>
                            </mask>
                            <g id="XMLID_111_"></g>
                            <polygon id="Rectangle-path" fill="#DFE1E5" fill-rule="nonzero" mask="url(#mask-25)" points="11.0786398 0 22.3379095 0 22.3379095 5.99852217 11.0786398 5.99852217"></polygon>
                        </g>
                    </g>
                    <path d="M22.3379095,23.3881773 L15.5341797,23.3881773 L15.5341797,3.99901478 C15.5341797,1.81773399 17.2802696,0 19.5080396,0 L22.3379095,0 L22.3379095,23.3881773 Z" id="Shape" fill="#EBECF0" fill-rule="nonzero"></path>
                    <path d="M3.55238993,30.2349754 L16.6179597,30.2349754 C17.8823696,30.2349754 18.9059396,29.2049261 18.9059396,27.9325123 L18.9059396,25.6300493 C18.9059396,24.3576355 17.8823696,23.3275862 16.6179597,23.3275862 L3.55238993,23.3275862 C1.68587996,23.3275862 0.180629996,24.8423645 0.180629996,26.7206897 L0.180629996,26.7206897 C0.180629996,28.720197 1.68587996,30.2349754 3.55238993,30.2349754 Z" id="Shape" fill="#C1C7D0" fill-rule="nonzero"></path>
                    <path d="M17.0394296,30.2349754 L17.0394296,30.2349754 C15.1729197,30.2349754 13.6676697,28.720197 13.6676697,26.8418719 L13.6676697,26.8418719 C13.6676697,24.9635468 15.1729197,23.4487685 17.0394296,23.4487685 L17.0394296,23.4487685 C18.9059396,23.4487685 20.4111896,24.9635468 20.4111896,26.8418719 L20.4111896,26.8418719 C20.4713996,28.720197 18.9661496,30.2349754 17.0394296,30.2349754 Z" id="Shape" fill="#FAFBFC" fill-rule="nonzero"></path>
                </g>
            </g>
        </g>
    </g>
</svg>