<svg width="25" height="24" viewBox="0 0 25 24" fill="none" xmlns="http://www.w3.org/2000/svg">
<path d="M12.0825 1L21.5825 6.5V17.5L12.0825 23L2.58252 17.5V6.5L12.0825 1ZM12.0825 3.311L4.58252 7.653V16.347L12.0825 20.689L19.5825 16.347V7.653L12.0825 3.311ZM12.0825 16C11.0217 16 10.0042 15.5786 9.25409 14.8284C8.50395 14.0783 8.08252 13.0609 8.08252 12C8.08252 10.9391 8.50395 9.92172 9.25409 9.17157C10.0042 8.42143 11.0217 8 12.0825 8C13.1434 8 14.1608 8.42143 14.9109 9.17157C15.6611 9.92172 16.0825 10.9391 16.0825 12C16.0825 13.0609 15.6611 14.0783 14.9109 14.8284C14.1608 15.5786 13.1434 16 12.0825 16ZM12.0825 14C12.613 14 13.1217 13.7893 13.4967 13.4142C13.8718 13.0391 14.0825 12.5304 14.0825 12C14.0825 11.4696 13.8718 10.9609 13.4967 10.5858C13.1217 10.2107 12.613 10 12.0825 10C11.5521 10 11.0434 10.2107 10.6683 10.5858C10.2932 10.9609 10.0825 11.4696 10.0825 12C10.0825 12.5304 10.2932 13.0391 10.6683 13.4142C11.0434 13.7893 11.5521 14 12.0825 14Z" fill="#222222"/>
</svg>
