<svg width="20" height="20" viewBox="0 0 20 20" fill="none" xmlns="http://www.w3.org/2000/svg">
<path d="M3.33333 2.49996C3.33333 2.03972 3.70643 1.66663 4.16667 1.66663H15.8333C16.2936 1.66663 16.6667 2.03972 16.6667 2.49996C16.6667 2.9602 16.2936 3.33329 15.8333 3.33329H4.16667C3.70643 3.33329 3.33333 2.9602 3.33333 2.49996Z" fill="currentColor"/>
<path d="M2.5 4.99996C2.03976 4.99996 1.66667 5.37306 1.66667 5.83329C1.66667 6.29353 2.03976 6.66663 2.5 6.66663H17.5C17.9602 6.66663 18.3333 6.29353 18.3333 5.83329C18.3333 5.37306 17.9602 4.99996 17.5 4.99996H2.5Z" fill="currentColor"/>
<path fill-rule="evenodd" clip-rule="evenodd" d="M1.25 8.33329C0.559644 8.33329 0 8.89294 0 9.58329V17.0833C0 17.7736 0.559644 18.3333 1.25 18.3333H18.75C19.4404 18.3333 20 17.7736 20 17.0833V9.58329C20 8.89294 19.4404 8.33329 18.75 8.33329H1.25ZM1.66667 9.99996V16.6666H18.3333V9.99996H1.66667Z" fill="currentColor"/>
</svg>
