<svg width="20" height="20" viewBox="0 0 20 20" fill="none" xmlns="http://www.w3.org/2000/svg">
<path fill-rule="evenodd" clip-rule="evenodd" d="M7.14896 2.50758C7.14896 2.19959 7.45091 1.94461 7.81564 1.94461H12.184C12.5488 1.94461 12.8507 2.19959 12.8507 2.50758V3.3335H7.14896V2.50758ZM5.83317 3.3335V2.50758C5.83317 1.58594 6.72422 0.833496 7.81564 0.833496H12.184C13.2755 0.833496 14.1665 1.58594 14.1665 2.50758V3.3335H14.3009C15.6035 3.3335 16.6665 4.41071 16.6665 5.73062V6.55782C17.2737 6.85349 17.7914 7.28578 18.1812 7.86996C18.6993 8.64644 18.9582 9.64113 18.9582 10.8335V14.1668C18.9582 15.7443 18.5043 16.9739 17.6126 17.8019C16.7293 18.6221 15.5123 18.9585 14.1665 18.9585H5.83317C4.48736 18.9585 3.27038 18.6221 2.38706 17.8019C1.49535 16.9739 1.0415 15.7443 1.0415 14.1668V10.8335C1.0415 9.64113 1.3004 8.64644 1.81848 7.86996C2.20825 7.28578 2.72595 6.85349 3.33317 6.55782V5.73062C3.33317 4.41071 4.39621 3.3335 5.69876 3.3335H5.83317ZM5.69876 4.64102C5.10884 4.64102 4.62349 5.13283 4.62349 5.73062V6.02714C4.96952 5.97366 5.32885 5.94854 5.69876 5.94854H14.3009C14.6708 5.94854 15.0302 5.97366 15.3762 6.02714V5.73062C15.3762 5.13283 14.8908 4.64102 14.3009 4.64102H5.69876ZM5.83317 7.29183C5.27502 7.29183 4.78224 7.36079 4.35519 7.49603L4.35054 7.4975L4.35053 7.49748C3.69835 7.69842 3.20049 8.05083 2.85828 8.56372C2.51177 9.08306 2.2915 9.81753 2.2915 10.8335V14.1668C2.2915 15.506 2.67099 16.3598 3.23762 16.8859C3.81263 17.4199 4.67898 17.7085 5.83317 17.7085H14.1665C15.3207 17.7085 16.187 17.4199 16.7621 16.8859C17.3287 16.3598 17.7082 15.506 17.7082 14.1668V10.8335C17.7082 9.81753 17.4879 9.08306 17.1414 8.56372C16.7992 8.05083 16.3013 7.69842 15.6491 7.49748L15.6445 7.49604L15.6445 7.49603C15.2174 7.36079 14.7247 7.29183 14.1665 7.29183H5.83317Z" fill="#222222"/>
</svg>
