<svg width="20" height="20" viewBox="0 0 20 20" fill="none" xmlns="http://www.w3.org/2000/svg">
<path fill-rule="evenodd" clip-rule="evenodd" d="M5.83333 3.33334V2.50742C5.83333 1.58579 6.72438 0.833344 7.8158 0.833344H12.1842C13.2756 0.833344 14.1667 1.58579 14.1667 2.50742V3.33334H14.3011C15.6036 3.33334 16.6667 4.41056 16.6667 5.73047V6.55767C17.2739 6.85334 17.7916 7.28562 18.1814 7.86981C18.6994 8.64629 18.9583 9.64098 18.9583 10.8333V14.1667C18.9583 15.7441 18.5045 16.9737 17.6128 17.8018C16.7295 18.622 15.5125 18.9583 14.1667 18.9583H5.83333C4.48752 18.9583 3.27054 18.622 2.38722 17.8018C1.49551 16.9737 1.04166 15.7441 1.04166 14.1667V10.8333C1.04166 9.64098 1.30056 8.64629 1.81864 7.86981C2.20841 7.28562 2.72611 6.85334 3.33333 6.55767V5.73047C3.33333 4.41056 4.39637 3.33334 5.69892 3.33334H5.83333ZM7.14912 2.50742C7.14912 2.19943 7.45107 1.94445 7.8158 1.94445H12.1842C12.5489 1.94445 12.8509 2.19943 12.8509 2.50742V3.33334H7.14912V2.50742ZM5.69892 4.64087C5.109 4.64087 4.62365 5.13268 4.62365 5.73047V6.02699C4.96968 5.9735 5.32901 5.94839 5.69892 5.94839H14.3011C14.671 5.94839 15.0303 5.9735 15.3763 6.02699V5.73047C15.3763 5.13268 14.891 4.64087 14.3011 4.64087H5.69892ZM5.83333 7.29168C5.27518 7.29168 4.7824 7.36064 4.35535 7.49587L4.35069 7.49733C3.69851 7.69827 3.20065 8.05067 2.85844 8.56357C2.51193 9.08291 2.29166 9.81738 2.29166 10.8333V14.1667C2.29166 15.5059 2.67115 16.3596 3.23778 16.8858C3.81279 17.4197 4.67914 17.7083 5.83333 17.7083H14.1667C15.3209 17.7083 16.1872 17.4197 16.7622 16.8858C17.3288 16.3596 17.7083 15.5059 17.7083 14.1667V10.8333C17.7083 9.81738 17.4881 9.08291 17.1416 8.56357C16.7993 8.05067 16.3015 7.69827 15.6493 7.49733L15.6446 7.49587C15.2176 7.36064 14.7248 7.29168 14.1667 7.29168H5.83333ZM11.2436 9.17438C11.775 9.11978 12.2639 9.35846 12.6994 9.79393C13.1373 10.2319 13.3789 10.7219 13.3262 11.2546C13.2766 11.7554 12.9779 12.144 12.6994 12.4225L12.3735 12.7484C12.3294 12.8144 12.2731 12.8701 12.2087 12.9133L9.86912 15.2528C9.75168 15.3759 9.60715 15.4654 9.48848 15.5247C9.36359 15.5871 9.21182 15.6438 9.05908 15.6679L9.04912 15.6695L7.96869 15.8215C7.61492 15.8718 7.24961 15.7788 6.98606 15.5153C6.72251 15.2517 6.62942 14.8871 6.67978 14.5333L6.83334 13.4422C6.85785 13.287 6.91576 13.1362 6.97791 13.0133C7.04007 12.8905 7.12841 12.7524 7.24244 12.6384L9.66323 10.2176C9.66806 10.2126 9.67299 10.2076 9.678 10.2028L10.0788 9.80195C10.3574 9.5234 10.7451 9.2256 11.2436 9.17438ZM11.8496 11.5727L11.7093 11.713C11.3064 11.5193 10.9825 11.1936 10.7912 10.7893L10.9287 10.6518C11.1389 10.4416 11.28 10.3788 11.3664 10.3699C11.4199 10.3644 11.5719 10.3661 11.8496 10.6438C12.1327 10.9269 12.1355 11.0819 12.1302 11.1362C12.1216 11.2222 12.0598 11.3625 11.8496 11.5727ZM8.09335 13.4871L9.90972 11.6708C10.1485 12.0389 10.4617 12.3532 10.8289 12.5933L9.01319 14.4091L9.00467 14.4177L8.9989 14.4219C8.988 14.4295 8.97163 14.4394 8.95105 14.4497C8.93063 14.4599 8.9105 14.4683 8.89338 14.4741C8.88151 14.4782 8.8742 14.4801 8.87164 14.4807L7.88127 14.6201L8.02058 13.6302C8.02118 13.6278 8.02282 13.6216 8.02629 13.6117C8.03184 13.5958 8.03995 13.5764 8.05034 13.5559C8.06074 13.5353 8.07151 13.5174 8.081 13.5036C8.08786 13.4936 8.09219 13.4885 8.09317 13.4873L8.09335 13.4871Z" fill="#222222"/>
</svg>
