<svg width="16" height="16" viewBox="0 0 16 16" fill="none"
  xmlns="http://www.w3.org/2000/svg">
  <path fill-rule="evenodd" clip-rule="evenodd" d="M5.71995 2.00601C5.71995 1.75962 5.96151 1.55564 6.25329 1.55564H9.74801C10.0398 1.55564 10.2814 1.75962 10.2814 2.00601V2.66675H5.71995V2.00601ZM4.66732 2.66675V2.00601C4.66732 1.2687 5.38016 0.666748 6.25329 0.666748H9.74801C10.6211 0.666748 11.334 1.2687 11.334 2.00601V2.66675H11.4415C12.4836 2.66675 13.334 3.52852 13.334 4.58445V5.24621C13.8198 5.48275 14.2339 5.82857 14.5457 6.29592C14.9602 6.91711 15.1673 7.71285 15.1673 8.66675V11.3334C15.1673 12.5954 14.8042 13.5791 14.0909 14.2415C13.3842 14.8977 12.4106 15.1667 11.334 15.1667H4.66732C3.59067 15.1667 2.61708 14.8977 1.91043 14.2415C1.19706 13.5791 0.833984 12.5954 0.833984 11.3334V8.66675C0.833984 7.71285 1.0411 6.91711 1.45556 6.29592C1.76738 5.82857 2.18154 5.48275 2.66732 5.24621V4.58445C2.66732 3.52852 3.51775 2.66675 4.55979 2.66675H4.66732ZM4.55979 3.71277C4.08785 3.71277 3.69958 4.10622 3.69958 4.58445V4.82166C3.9764 4.77888 4.26386 4.75878 4.55979 4.75878H11.4415C11.7374 4.75878 12.0249 4.77888 12.3017 4.82166V4.58445C12.3017 4.10622 11.9134 3.71277 11.4415 3.71277H4.55979ZM4.66732 5.83342C4.2208 5.83342 3.82657 5.88859 3.48493 5.99677L3.48121 5.99795L3.48121 5.99793C2.95946 6.15869 2.56117 6.44061 2.28741 6.85093C2.0102 7.2664 1.83398 7.85398 1.83398 8.66675V11.3334C1.83398 12.4048 2.13757 13.0878 2.59088 13.5087C3.05089 13.9358 3.74396 14.1667 4.66732 14.1667H11.334C12.2573 14.1667 12.9504 13.9358 13.4104 13.5087C13.8637 13.0878 14.1673 12.4048 14.1673 11.3334V8.66675C14.1673 7.85398 13.9911 7.2664 13.7139 6.85093C13.4401 6.44061 13.0418 6.15869 12.5201 5.99793L12.5164 5.99679L12.5164 5.99677C12.1747 5.88859 11.7805 5.83342 11.334 5.83342H4.66732Z" fill="url(#paint0_linear_325_5)"/>
  <defs>
    <linearGradient id="paint0_linear_325_5" x1="0.435837" y1="1.06953" x2="15.3281" y2="14.9948" gradientUnits="userSpaceOnUse">
      <stop stop-color="#323493"/>
      <stop offset="1" stop-color="#DF9E9C"/>
    </linearGradient>
  </defs>
</svg>
