<svg width="24" height="24" viewBox="0 0 24 24" fill="none" xmlns="http://www.w3.org/2000/svg">
<path d="M14.8757 4.11621C16.4004 5.01496 17.5837 6.57538 18.0786 8.82026C22.6269 9.83274 24.3369 16.0068 20.7292 19.1698C19.6022 20.1919 18.1329 20.7614 16.6044 20.7499C16.1902 20.7469 15.857 20.4086 15.86 19.9944C15.8631 19.5802 16.2014 19.2469 16.6156 19.25C17.7647 19.2586 18.8732 18.8299 19.7255 18.055L19.7363 18.0454C22.4906 15.6365 21.0442 10.7792 17.4642 10.2305C17.009 10.2426 16.5688 10.3542 16.1555 10.5608C15.785 10.746 15.3345 10.5959 15.1493 10.2254C14.964 9.85491 15.1142 9.40441 15.4847 9.21916C15.8228 9.05011 16.1764 8.92324 16.5412 8.84103C16.095 7.13578 15.1823 6.03816 14.114 5.40842C12.8787 4.68025 11.36 4.53362 9.94646 4.9042C8.53291 5.27478 7.27765 6.14868 6.55228 7.39134C5.89086 8.52444 5.63431 10.0247 6.17769 11.8547C6.67978 11.9194 7.16904 12.0717 7.62056 12.3017C7.98964 12.4897 8.13642 12.9413 7.9484 13.3104C7.76037 13.6795 7.30875 13.8263 6.93967 13.6382C6.52176 13.4253 6.05999 13.3152 5.60266 13.3196C1.90334 13.6014 1.89835 18.9975 5.62321 19.2618C6.03638 19.2912 6.34756 19.6499 6.31824 20.0631C6.28891 20.4762 5.9302 20.7874 5.51702 20.7581C0.253227 20.3845 -0.0631015 13.086 4.64891 11.9539C4.11942 9.899 4.4114 8.0835 5.25683 6.63516C6.20802 5.00563 7.81838 3.91141 9.56608 3.45323C11.3138 2.99507 13.252 3.15906 14.8757 4.11621Z" fill="currentColor"/>
<path d="M11.5303 16.4697C11.2374 16.1768 10.7626 16.1768 10.4697 16.4697L8.46967 18.4697C8.17678 18.7626 8.17678 19.2374 8.46967 19.5303C8.76256 19.8232 9.23744 19.8232 9.53033 19.5303L10.22 18.8407V22C10.22 22.4142 10.5558 22.75 10.97 22.75C11.3842 22.75 11.72 22.4142 11.72 22V18.7806L12.4697 19.5303C12.7626 19.8232 13.2374 19.8232 13.5303 19.5303C13.8232 19.2374 13.8232 18.7626 13.5303 18.4697L11.5303 16.4697Z" fill="currentColor"/>
</svg>
