<svg width="28" height="28" viewBox="0 0 28 28" fill="none" xmlns="http://www.w3.org/2000/svg">
<path fill-rule="evenodd" clip-rule="evenodd" d="M20.7351 8.78537C21.0768 8.44367 21.0768 7.88965 20.7351 7.54794C20.3934 7.20623 19.8394 7.20623 19.4977 7.54794L14.1415 12.9041L8.78534 7.54794C8.44364 7.20623 7.88962 7.20623 7.54791 7.54794C7.2062 7.88965 7.2062 8.44367 7.54791 8.78537L12.9041 14.1415L7.54792 19.4977C7.20621 19.8394 7.20621 20.3934 7.54792 20.7351C7.88963 21.0768 8.44365 21.0768 8.78536 20.7351L14.1415 15.379L19.4976 20.7351C19.8394 21.0768 20.3934 21.0768 20.7351 20.7351C21.0768 20.3934 21.0768 19.8394 20.7351 19.4977L15.3789 14.1415L20.7351 8.78537Z" fill="url(#paint0_linear_19_17815)"/>
<defs>
<linearGradient id="paint0_linear_19_17815" x1="6.91108" y1="7.6722" x2="20.9914" y2="20.9914" gradientUnits="userSpaceOnUse">
<stop stop-color="#323493"/>
<stop offset="1" stop-color="#DF9E9C"/>
</linearGradient>
</defs>
</svg>
