<svg width="18" height="20" viewBox="0 0 18 20" fill="none"
  xmlns="http://www.w3.org/2000/svg">
  <path d="M14.5401 6.31001C15.8987 6.31001 17.0001 5.20863 17.0001 3.85001C17.0001 2.49139 15.8987 1.39001 14.5401 1.39001C13.1814 1.39001 12.0801 2.49139 12.0801 3.85001C12.0801 5.20863 13.1814 6.31001 14.5401 6.31001Z" stroke="#717171" stroke-width="1.5" stroke-miterlimit="10" stroke-linecap="round" stroke-linejoin="round"/>
  <path d="M3.46001 6.31001C4.81863 6.31001 5.92 5.20863 5.92 3.85001C5.92 2.49139 4.81863 1.39001 3.46001 1.39001C2.10139 1.39001 1 2.49139 1 3.85001C1 5.20863 2.10139 6.31001 3.46001 6.31001Z" stroke="#717171" stroke-width="1.5" stroke-miterlimit="10" stroke-linecap="round" stroke-linejoin="round"/>
  <path d="M14.5401 18.61C15.8987 18.61 17.0001 17.5086 17.0001 16.15C17.0001 14.7914 15.8987 13.69 14.5401 13.69C13.1814 13.69 12.0801 14.7914 12.0801 16.15C12.0801 17.5086 13.1814 18.61 14.5401 18.61Z" stroke="#717171" stroke-width="1.5" stroke-miterlimit="10" stroke-linecap="round" stroke-linejoin="round"/>
  <path d="M3.46001 18.61C4.81863 18.61 5.92 17.5086 5.92 16.15C5.92 14.7914 4.81863 13.69 3.46001 13.69C2.10139 13.69 1 14.7914 1 16.15C1 17.5086 2.10139 18.61 3.46001 18.61Z" stroke="#717171" stroke-width="1.5" stroke-miterlimit="10" stroke-linecap="round" stroke-linejoin="round"/>
</svg>
